<svg version="1.2" xmlns="http://www.w3.org/2000/svg" viewBox="0 0 1774 213" width="1774" height="213">
	<style>
		.s0 { fill: #ffebaf } 
	</style>
	<g id="SUNKISSED">
		<path id="Path 0" class="s0" d="m72 4.99c-5.78 1.01-14.1 3.03-18.5 4.5-4.4 1.47-11.6 4.53-16 6.81-5.51 2.86-10.18 6.34-15.02 11.18-4.39 4.4-8.38 9.64-10.69 14.02-2.02 3.85-4.36 9.92-5.21 13.5-0.85 3.58-1.56 9.54-1.57 13.25 0 3.71 0.71 10.24 1.58 14.5 0.88 4.26 2.79 10.21 4.25 13.22 1.46 3 5.17 8.18 8.25 11.5 3.83 4.13 8.08 7.35 13.5 10.21 4.35 2.3 11.28 5.09 15.41 6.2 4.12 1.12 24.6 4.32 45.5 7.12 20.9 2.79 39.8 5.57 42 6.17 2.2 0.6 5.32 2.49 6.93 4.21 2.55 2.72 2.84 3.63 2.3 7.12-0.34 2.2-1.43 4.7-2.42 5.55-1 0.85-4.74 2.08-8.31 2.74-3.57 0.66-14.94 1.2-25.25 1.2-10.31 0.01-22.24-0.48-26.5-1.08-4.26-0.61-8.99-1.73-10.5-2.5-1.51-0.78-3.51-2.65-4.44-4.16-0.94-1.51-1.95-5.57-2.25-9.01l-0.56-6.26-56.5 0.02c0.02 8.14 0.86 14.55 1.88 19.5 1.1 5.34 3.38 12.05 5.61 16.5 2.73 5.44 5.85 9.56 11.38 15.01 4.91 4.84 10.12 8.8 14.63 11.14 3.85 1.99 10.6 4.82 15 6.28 4.4 1.46 12.05 3.42 17 4.35 6.92 1.3 14.77 1.69 34 1.7 20.79 0.01 26.43-0.3 33.5-1.86 4.68-1.04 11.43-2.87 15-4.09 3.57-1.21 9.87-3.95 14-6.1 5.13-2.66 9.88-6.27 15.02-11.41 5.05-5.06 8.55-9.65 10.69-14.02 1.75-3.57 3.88-9.43 4.72-13 0.85-3.57 1.54-9.65 1.54-13.5 0-3.85-0.67-10.15-1.49-14-0.82-3.85-2.69-9.47-4.16-12.5-1.53-3.15-5.49-8.3-9.25-12.05-4.36-4.34-9.26-7.93-14.57-10.68-4.4-2.28-12.5-5.29-18-6.7-5.5-1.41-25.53-4.83-44.5-7.59-18.97-2.77-36.3-5.52-38.5-6.1-2.2-0.58-5.02-2.03-6.26-3.22-1.24-1.19-2.48-3.4-2.75-4.91-0.27-1.51 0.12-3.99 0.87-5.5 0.83-1.69 3.05-3.46 5.75-4.58 2.69-1.13 9.03-2.21 16.39-2.81 7.96-0.64 16.55-0.61 25.5 0.07 7.42 0.57 15.08 1.49 17 2.04 1.93 0.56 4.96 1.92 6.75 3.02 1.79 1.11 3.65 3.02 4.14 4.26 0.49 1.24 1.16 4.84 1.5 8l0.61 5.75 57.5 0.02c-1.23-12.8-2.27-19.22-3.11-22.52-0.85-3.3-3.14-9.38-5.11-13.5-2.67-5.6-5.5-9.42-11.18-15.1-6.29-6.29-9.41-8.49-18.1-12.75-5.78-2.83-13.2-5.84-16.5-6.68-3.3-0.85-10.28-2.2-15.5-3-5.94-0.91-16.43-1.43-28-1.38-13.15 0.05-21.54 0.6-29 1.9z"/>
		<path id="Path 1" class="s0" d="m876 106.5v100.5h57v-201h-57z"/>
		<path id="Path 2" class="s0" d="m657 106.5v100.5h57v-71l40.5 0.07 46 70.86 68.5 0.07c-2.6-4.26-17.85-27.32-35.57-54l-32.21-48.5c35.71-50.38 51.19-72.31 57.43-81.25 6.24-8.94 11.35-16.48 11.35-16.75 0-0.27-15.3-0.5-34-0.5h-34l-48 74h-40v-74h-57z"/>
		<path id="Path 3" class="s0" d="m436 106.5v100.5h57c-0.11-62.39-0.68-88.71-1.32-98.75-1.04-16.08-1-18.25 0.32-18.22 0.84 0.01 7.05 8.67 14.15 19.74 7.78 12.13 24.06 34.66 42.25 58.48l29.6 38.75h61v-201h-57c-0.01 62.39 0.44 87.7 1 96.5 0.55 8.8 1.11 17.92 1.25 20.27 0.21 3.56-0.04 4.23-1.48 4-1.02-0.16-7.51-9.42-16-22.82-8.53-13.49-25.52-37.71-42.27-60.27l-28-37.71-60.5 0.03z"/>
		<path id="Path 4" class="s0" d="m1013 4.99c-5.77 1.01-14.1 3.03-18.5 4.5-4.4 1.47-11.6 4.53-16 6.81-5.51 2.86-10.18 6.34-15.02 11.18-4.39 4.4-8.38 9.64-10.69 14.02-2.02 3.85-4.36 9.92-5.21 13.5-0.85 3.58-1.56 9.54-1.57 13.25 0 3.71 0.71 10.24 1.58 14.5 0.88 4.26 2.79 10.21 4.25 13.22 1.46 3 5.17 8.18 8.25 11.5 3.83 4.13 8.08 7.35 13.5 10.21 4.35 2.3 11.28 5.09 15.41 6.2 4.12 1.12 24.6 4.32 45.5 7.12 20.9 2.79 39.8 5.57 42 6.17 2.2 0.6 5.32 2.49 6.93 4.21 2.55 2.72 2.84 3.63 2.3 7.12-0.34 2.2-1.43 4.7-2.42 5.55-1 0.85-4.73 2.08-8.31 2.74-3.58 0.66-14.94 1.2-25.25 1.2-10.31 0.01-22.24-0.48-26.5-1.08-4.26-0.61-8.99-1.73-10.5-2.5-1.51-0.78-3.51-2.65-4.44-4.16-0.94-1.51-1.95-5.57-2.25-9.01l-0.56-6.26-56.5 0.02c0.02 8.14 0.86 14.55 1.88 19.5 1.1 5.34 3.38 12.05 5.61 16.5 2.73 5.44 5.85 9.56 11.38 15.01 4.91 4.84 10.12 8.8 14.63 11.14 3.85 1.99 10.6 4.82 15 6.28 4.4 1.46 12.05 3.42 17 4.35 6.92 1.3 14.77 1.69 34 1.7 20.79 0.01 26.43-0.3 33.5-1.86 4.67-1.04 11.42-2.87 15-4.09 3.58-1.21 9.87-3.95 14-6.1 5.13-2.66 9.88-6.27 15.02-11.41 5.05-5.06 8.55-9.65 10.69-14.02 1.75-3.57 3.88-9.43 4.72-13 0.85-3.57 1.54-9.65 1.54-13.5 0-3.85-0.67-10.15-1.49-14-0.82-3.85-2.69-9.47-4.16-12.5-1.53-3.15-5.49-8.3-9.25-12.05-4.36-4.34-9.26-7.93-14.57-10.68-4.4-2.28-12.5-5.29-18-6.7-5.5-1.41-25.53-4.83-44.5-7.59-18.97-2.77-36.3-5.52-38.5-6.1-2.2-0.58-5.02-2.03-6.26-3.22-1.24-1.19-2.48-3.4-2.75-4.91-0.27-1.51 0.12-3.99 0.87-5.5 0.83-1.69 3.05-3.46 5.75-4.58 2.69-1.13 9.03-2.21 16.39-2.81 7.96-0.64 16.55-0.61 25.5 0.07 7.42 0.57 15.08 1.49 17 2.04 1.92 0.56 4.96 1.92 6.75 3.02 1.79 1.11 3.65 3.02 4.14 4.26 0.49 1.24 1.16 4.84 1.5 8l0.61 5.75 57.5 0.02c-1.23-12.8-2.27-19.22-3.11-22.52-0.85-3.3-3.14-9.38-5.11-13.5-2.67-5.6-5.5-9.42-11.18-15.1-6.29-6.29-9.41-8.49-18.1-12.75-5.78-2.83-13.2-5.84-16.5-6.68-3.3-0.85-10.28-2.2-15.5-3-5.94-0.91-16.43-1.43-28-1.38-13.15 0.05-21.54 0.6-29 1.9z"/>
		<path id="Path 5" class="s0" d="m1218 4.99c-5.78 1.01-14.1 3.03-18.5 4.5-4.4 1.47-11.6 4.53-16 6.81-5.51 2.86-10.18 6.34-15.02 11.18-4.39 4.4-8.38 9.64-10.69 14.02-2.02 3.85-4.36 9.92-5.21 13.5-0.85 3.58-1.56 9.54-1.57 13.25 0 3.71 0.71 10.24 1.58 14.5 0.88 4.26 2.79 10.21 4.25 13.22 1.46 3 5.17 8.18 8.25 11.5 3.83 4.13 8.08 7.35 13.5 10.21 4.35 2.3 11.28 5.09 15.41 6.2 4.12 1.12 24.6 4.32 45.5 7.12 20.9 2.79 39.8 5.57 42 6.17 2.2 0.6 5.32 2.49 6.93 4.21 2.55 2.72 2.84 3.63 2.3 7.12-0.34 2.2-1.43 4.7-2.42 5.55-1 0.85-4.73 2.08-8.31 2.74-3.58 0.66-14.94 1.2-25.25 1.2-10.31 0.01-22.24-0.48-26.5-1.08-4.26-0.61-8.99-1.73-10.5-2.5-1.51-0.78-3.51-2.65-4.44-4.16-0.94-1.51-1.95-5.57-2.25-9.01l-0.56-6.26-56.5 0.02c0.02 8.14 0.86 14.55 1.88 19.5 1.1 5.34 3.38 12.05 5.61 16.5 2.73 5.44 5.85 9.56 11.38 15.01 4.91 4.84 10.12 8.8 14.63 11.14 3.85 1.99 10.6 4.82 15 6.28 4.4 1.46 12.05 3.42 17 4.35 6.92 1.3 14.77 1.69 34 1.7 20.79 0.01 26.43-0.3 33.5-1.86 4.67-1.04 11.42-2.87 15-4.09 3.58-1.21 9.87-3.95 14-6.1 5.13-2.66 9.88-6.27 15.02-11.41 5.05-5.06 8.55-9.65 10.69-14.02 1.75-3.57 3.88-9.43 4.72-13 0.85-3.57 1.54-9.65 1.54-13.5 0-3.85-0.67-10.15-1.49-14-0.82-3.85-2.69-9.47-4.16-12.5-1.53-3.15-5.49-8.3-9.25-12.05-4.36-4.34-9.26-7.93-14.57-10.68-4.4-2.28-12.5-5.29-18-6.7-5.5-1.41-25.53-4.83-44.5-7.59-18.97-2.77-36.3-5.52-38.5-6.1-2.2-0.58-5.02-2.03-6.26-3.22-1.24-1.19-2.48-3.4-2.75-4.91-0.27-1.51 0.12-3.99 0.87-5.5 0.83-1.69 3.05-3.46 5.75-4.58 2.69-1.13 9.03-2.21 16.39-2.81 7.96-0.64 16.55-0.61 25.5 0.07 7.42 0.57 15.08 1.49 17 2.04 1.92 0.56 4.96 1.92 6.75 3.02 1.79 1.11 3.65 3.02 4.14 4.26 0.49 1.24 1.16 4.84 1.5 8l0.61 5.75 57.5 0.02c-1.23-12.8-2.27-19.22-3.11-22.52-0.85-3.3-3.14-9.38-5.11-13.5-2.67-5.6-5.5-9.42-11.18-15.1-6.29-6.29-9.41-8.49-18.1-12.75-5.78-2.83-13.2-5.84-16.5-6.68-3.3-0.85-10.28-2.2-15.5-3-5.94-0.91-16.43-1.43-28-1.38-13.15 0.05-21.54 0.6-29 1.9z"/>
		<path id="Path 6" class="s0" d="m1361 106.5v100.5h179v-51h-122v-25h117v-51h-117v-23h122v-51h-179z"/>
		<path id="Path 7" class="s0" d="m213.28 71.75c0.35 54.9 0.68 66.9 1.98 72.75 0.86 3.85 2.62 9.93 3.91 13.5 1.29 3.57 3.92 9.16 5.84 12.41 1.92 3.25 5.96 8.61 8.99 11.92 3.03 3.31 8.65 8.09 12.5 10.62 3.85 2.54 10.6 6.11 15 7.95 4.4 1.84 12.73 4.46 18.5 5.84 8.96 2.13 13.64 2.57 32 2.98 18.84 0.42 22.96 0.22 33.25-1.62 6.46-1.15 14.56-3.04 18-4.2 3.44-1.15 9.4-3.62 13.25-5.47 3.85-1.85 9.93-5.57 13.5-8.25 3.57-2.69 8.64-7.54 11.25-10.78 2.61-3.25 6.29-8.83 8.17-12.4 1.89-3.57 4.7-10.55 6.24-15.5l2.81-9 0.25-136.5h-56.9l-0.32 127.5c-3.96 8.53-6.66 12.23-8.55 13.74-1.9 1.5-6.38 3.68-9.95 4.83-4.79 1.54-10.19 2.24-20.5 2.64-8 0.3-17.75 0.05-22.75-0.59-4.81-0.62-10.89-2.02-13.5-3.11-2.61-1.09-6.19-3.46-7.95-5.25-1.76-1.79-4.01-5.06-5-7.26-1.66-3.7-1.82-8.82-2.04-68.25l-0.23-64.25h-58.16z"/>
		<path id="Path 8" fill-rule="evenodd" class="s0" d="m1558 6l58.25 0.02c33.17 0.01 61.26 0.45 65.25 1.01 3.85 0.55 10.6 1.89 15 2.97 4.4 1.09 10.92 3.15 14.5 4.58 3.58 1.44 10.03 4.71 14.35 7.27 4.31 2.56 11.08 7.8 15.02 11.65 3.95 3.85 9.4 10.38 12.12 14.5 2.72 4.13 6.39 11.1 8.16 15.5 1.78 4.4 4.2 12.72 5.39 18.5 1.6 7.77 2.18 14.27 2.24 25 0.05 10.41-0.44 16.9-1.74 23-0.99 4.68-2.88 11.65-4.21 15.5-1.32 3.85-4.01 9.93-5.99 13.5-1.97 3.57-5.67 9.15-8.21 12.4-2.55 3.24-7.78 8.55-11.63 11.79-3.85 3.24-11.28 8.07-16.5 10.73-5.22 2.65-12.42 5.77-16 6.93-3.58 1.16-9.65 2.87-13.5 3.79-6.09 1.47-15.18 1.73-132.5 2.36zm57 150c64.08-0.69 66.94-0.87 72.5-2.84 3.3-1.17 7.52-3.6 9.37-5.39 1.85-1.8 4.27-5.07 5.37-7.27 1.11-2.2 2.66-7.15 3.46-11 0.89-4.31 1.44-12.76 1.44-22-0.01-8.25-0.52-18.15-1.15-22-0.62-3.85-2.11-9.2-3.31-11.9-1.2-2.69-4.09-6.63-6.43-8.75-2.34-2.12-5.94-4.29-8-4.82-2.06-0.53-6.9-1.42-10.75-1.98-3.85-0.56-19.49-1.02-34.75-1.03l-27.75-0.02z"/>
	</g>
</svg>