<svg version="1.2" xmlns="http://www.w3.org/2000/svg" viewBox="0 0 2000 2000" width="2000" height="2000">
	<path id="Path 0" fill="currentColor" fill-rule="evenodd"  d="m970.32 202c3.61-0.11 9.97 7.23 14.14 16.32 4.18 9.09 9.71 26.35 12.29 38.37 2.59 12.01 5.5 58.22 6.47 102.68 0.97 44.46 3.03 89.68 4.57 100.5 1.54 10.81 7.99 31.08 14.34 45.04 7.61 16.72 13.79 24.92 18.1 24.03 3.61-0.74 25.24-38.71 48.07-84.37 31.42-62.83 43.63-83.29 50.25-84.13 4.8-0.62 11.68 0.8 15.29 3.14 5.49 3.56 6.55 19.35 6.55 96.87 0 70.41 1.31 92.97 5.47 94.08 3 0.81 18.73-11.99 34.95-28.44 16.22-16.44 44.41-49.38 62.64-73.18 18.23-23.81 40.84-56.99 50.25-73.73 9.41-16.74 19.56-32.96 22.56-36.05 3.38-3.47 8.92-4.36 14.52-2.33 4.99 1.8 10.03 7.21 11.21 12.02 1.18 4.8-1.68 18.57-6.34 30.58-4.67 12.02-21.51 47.9-37.42 79.74-15.92 31.85-32.7 70.19-37.3 85.21-4.6 15.02-9.52 36.65-10.93 48.06-1.93 15.71-0.96 21.82 4 25.12 5.03 3.36 21.04-5.49 68.82-38.03 34.24-23.32 80.94-54.75 103.77-69.83 23.01-15.2 50.27-29.47 61.17-32.02 10.82-2.53 21.33-3.06 23.35-1.17 2.03 1.88 2.53 8.83 1.1 15.43-1.55 7.16-18.07 27.53-40.83 50.34-21.03 21.08-54.21 53.03-73.73 71.01-19.52 17.97-41.67 42.51-49.22 54.52-7.55 12.02-13.78 25.78-13.85 30.59-0.08 4.81 2.9 11.2 6.61 14.2 4.21 3.41 12.92 4.49 23.14 2.89 9.01-1.41 41.94-10.99 73.18-21.28 31.25-10.28 85.32-31.01 120.16-46.05 34.85-15.04 69.67-28.57 77.38-30.06 11.51-2.23 14.53-1.16 16.87 6.02 1.57 4.81 0.24 14.64-2.96 21.85-3.2 7.21-12.97 20.97-21.73 30.58-8.75 9.61-28.47 25.76-43.83 35.89-15.35 10.12-53.47 28.89-84.71 41.7-31.25 12.81-62.7 27.42-69.91 32.46-7.21 5.04-16.58 12.82-20.81 17.29-4.24 4.46-6.69 11.55-5.46 15.76 1.96 6.72 6.36 7.35 36.1 5.21 18.62-1.34 68.27-6.38 110.32-11.2 42.06-4.82 78.93-7.66 81.93-6.3 3.01 1.35 5.46 6.39 5.46 11.2 0 4.8-5.4 14.45-12.01 21.44-6.61 6.98-51.94 33.04-189.46 103.09l29.74 5.31c16.35 2.92 59.22 8.22 95.27 11.77 36.05 3.55 87.17 7.62 113.6 9.04 26.44 1.43 57.9 3.72 69.91 5.1 12.02 1.39 28.24 5.25 36.05 8.59 11.4 4.87 13.44 7.58 10.34 13.71-2.23 4.42-15.62 11-31.68 15.58-15.3 4.36-49.44 10.76-75.88 14.22-26.43 3.45-87.39 12.39-135.45 19.86-48.06 7.47-91.81 15.33-97.22 17.46-5.41 2.14-9.83 6.83-9.83 10.44 0 3.72 8.03 9.52 18.57 13.42 10.21 3.78 49.51 21.96 87.33 40.42 41.82 20.4 69.64 36.54 71.01 41.19 1.23 4.21-0.71 10.6-4.32 14.2-5.45 5.45-22.22 6.47-99.4 6.06-51.07-0.28-95.31-0.28-98.32 0-3 0.27-5.48 2.96-5.51 5.96-0.02 3 10.3 15.43 22.94 27.61 12.65 12.18 34.79 32.09 49.21 44.25 14.42 12.15 44.89 34.73 67.72 50.17 22.83 15.44 56.77 36.82 75.43 47.51 18.65 10.69 34.88 22.39 36.06 25.99 1.19 3.61-0.31 9.1-3.32 12.21-3.02 3.11-9.91 5.57-15.32 5.46-5.4-0.1-22.12-4.8-37.14-10.44-15.02-5.63-57.78-26.15-95.03-45.59-37.95-19.8-82.13-39.31-100.5-44.38-18.02-4.97-41.12-9.03-51.34-9.03-10.21 0.01-18.57 1-18.57 2.2 0 1.2 15.13 25.29 33.62 53.52 18.49 28.24 43.06 66.58 54.62 85.21 11.55 18.62 20.01 36.81 18.81 40.42-1.2 3.6-5.62 6.52-9.83 6.48-4.2-0.04-22.39-8.98-40.42-19.86-18.02-10.89-56.77-31.99-86.1-46.9-36.64-18.62-54.86-25.74-58.2-22.74-3.46 3.12 13.33 40.88 58.8 132.17 35.01 70.29 63.61 130.26 63.55 133.27-0.06 3-3.5 8.97-7.65 13.25-4.14 4.28-12.94 7.72-19.55 7.65-9.08-0.11-17.38-6.28-33.97-25.27-12.07-13.82-40.35-51.67-62.85-84.11-22.49-32.45-54.72-73.74-71.61-91.76-25.29-26.98-31.75-31.78-36.56-27.16-4.86 4.68-4.88 19.58-0.08 89.58 3.17 46.17 6.44 89.85 7.28 97.06 0.83 7.21 0.7 15.57-0.3 18.57-1 3.01-5.74 5.47-10.55 5.47-5.5 0-11.35-5.27-15.79-14.2-3.88-7.82-23.49-41.73-43.59-75.38-20.1-33.64-42.32-68.05-49.39-76.46-8.49-10.1-14.3-13.81-17.12-10.93-2.34 2.41-10.52 54.51-18.18 115.79-7.67 61.29-14.92 120.27-16.13 131.09-1.21 10.81-4 27.03-6.2 36.04-2.62 10.72-7.41 17.7-13.84 20.18-5.41 2.09-11.8 3.11-14.2 2.26-2.4-0.85-6-7.96-7.99-15.81-1.99-7.85-5.32-60.48-7.42-116.95-2.65-71.66-5.98-110.61-11.02-128.9-3.96-14.42-9.97-31.63-13.33-38.23-3.37-6.61-9.07-12.02-12.67-12.02-4.26 0-12.69 15.68-24.08 44.79-9.63 24.63-26.84 63.4-38.23 86.14-11.39 22.75-24.15 43.4-28.36 45.88-5.33 3.16-9.96 3.06-15.29-0.32-6.79-4.29-7.89-15.58-9.83-100.14-1.32-57.39-3.93-95.98-6.56-97.01-2.4-0.94-53.03 49.53-112.51 112.16-59.48 62.62-111.09 113.86-114.7 113.86-3.6 0-10.48-3.93-15.29-8.74-4.81-4.8-8.7-11.19-8.64-14.2 0.05-3 5.29-14.31 11.65-25.12 6.36-10.81 23.52-34.15 38.14-51.85 14.62-17.7 35.17-43.27 45.67-56.8 10.5-13.54 25.69-38.38 33.75-55.2 8.07-16.83 16.19-41.8 18.05-55.5 3.08-22.64 2.59-25.18-5.35-27.81-6.1-2.02-14.03 1.18-26.22 10.59-9.61 7.41-43.53 31.24-75.37 52.93-37.53 25.57-61.35 39.06-67.73 38.36q-9.83-1.1-10.92-10.93c-0.66-5.91 16.32-40.3 42.6-86.29 24.03-42.06 43.69-80.4 43.69-85.21 0-4.8-2.45-8.71-5.46-8.67-3 0.04-19.22 4.15-36.04 9.13-16.83 4.98-46.32 14.57-65.55 21.31-19.22 6.73-52.65 19.57-74.28 28.53-21.62 8.95-48.66 20.96-60.08 26.69-11.41 5.72-26.65 10.4-33.86 10.4-9.94 0-13.71-2.37-15.6-9.83-1.71-6.76 0.68-13.06 7.65-20.15 5.57-5.67 20.95-17.65 34.17-26.61 13.22-8.97 45.66-28.36 72.09-43.09 26.44-14.73 59.37-35.69 73.19-46.57 13.82-10.88 31.02-27.65 38.23-37.26 7.21-9.62 12.13-20.43 10.93-24.04-1.2-3.6-4.65-6.54-7.65-6.53-3 0.01-44.79 3.94-92.85 8.72-48.06 4.78-92.8 8.7-99.4 8.72-8.69 0.01-13.53-3.16-17.48-11.47-5.08-10.68-4.38-12.38 9.83-24.07 8.41-6.92 34.96-20.24 58.99-29.6 24.03-9.37 54.51-22.09 67.72-28.27 13.22-6.18 30.51-17.67 38.43-25.54 7.91-7.86 14.3-16.76 14.2-19.76-0.11-3.01-4.62-6.34-10.03-7.42-5.4-1.07-73.73-8.97-151.83-17.55-86.18-9.47-144.23-17.72-147.67-20.99-3.11-2.96-5.56-7.84-5.46-10.84 0.11-3.01 4.62-8.19 10.03-11.53 5.41-3.33 17.7-7.42 27.31-9.08 9.61-1.65 52.87-4.66 96.13-6.69 43.25-2.02 92.41-6.08 109.23-9.03 16.82-2.94 38.94-9 49.16-13.46 12.27-5.36 18.2-10.54 17.47-15.27-0.69-4.53-21.14-16.23-55.71-31.85-30.04-13.58-70.01-32.48-88.82-42-30.36-15.35-34.05-18.53-31.33-39.15l100.49-2.39c55.27-1.32 100.99-2.79 101.59-3.28 0.6-0.48 1.17-3.34 1.26-6.34 0.09-3.01-19.08-20.17-42.6-38.13-23.53-17.97-72.26-55.19-108.31-82.71-36.05-27.52-70.99-55.1-77.65-61.27-6.66-6.18-12.07-15.67-12.02-21.07 0.05-5.41 4.03-11.8 8.83-14.2 4.81-2.41 12.18-4.38 16.39-4.39 4.2-0.01 29.29 14.25 55.74 31.68 26.45 17.43 64.8 38.93 85.2 47.78 20.41 8.85 56.78 21.18 80.81 27.39 24.03 6.21 46.15 11.26 49.15 11.22 3.01-0.04 6.34-2.54 7.4-5.54 1.07-3-20.7-40.85-48.36-84.11-38.13-59.62-49.7-81.03-47.82-88.48 1.37-5.41 4.45-9.83 6.86-9.83 2.4 0 38.78 18.68 80.83 41.51 42.06 22.83 79.42 40.52 83.02 39.32 4.4-1.46 5.69-5.42 3.94-12.01-1.44-5.41-9.34-26.55-17.54-46.98-8.21-20.42-27.94-59.75-43.85-87.38-24.46-42.48-28.32-51.94-24.99-61.18 2.72-7.52 7.67-11.26 15.89-12.01 10.17-0.93 24.53 11.18 97.14 81.92 46.86 45.67 88.15 83.02 91.75 83.02 3.61 0 7.66-2.45 9.02-5.46 1.35-3 0.4-33.97-2.12-68.82-2.52-34.84-5.1-78.1-5.74-96.12-1.1-31.14-0.67-32.83 8.67-33.87 8.5-0.94 16.8 10.79 61.18 86.49 36.23 61.81 53.59 87.52 58.98 87.39 5.86-0.15 8.17-5.04 9.87-20.95 1.21-11.41 8.03-82.6 15.14-158.2 8.98-95.5 14.64-138.48 18.54-140.84 3.09-1.88 8.56-3.5 12.16-3.61zm-131.08 528.58c-15.62 7.72-36.26 19.85-45.88 26.96-9.61 7.1-26.32 21.34-37.14 31.63-10.81 10.29-26.09 28.39-33.95 40.23-7.87 11.84-14.26 23-14.2 24.81 0.05 1.8 2.55 4.42 5.55 5.83 3 1.4 26.11-3.94 51.34-11.87 37.55-11.81 53.02-14.45 85.2-14.51 24.95-0.05 48.51 2.7 64.45 7.51 14.88 4.48 29.6 12.47 36.09 19.59 7.46 8.19 11.98 19.68 14.19 36.05 1.78 13.22 3.24 50.23 3.24 82.25l0.01 58.23c-30.22 28.45-33.11 33.61-29.69 38.66 2.43 3.61 12.08 9.37 21.43 12.81 14.75 5.43 19.26 5.43 34.07 0 9.39-3.44 19.22-9.9 21.85-14.35 3.82-6.47 3.14-9.1-3.39-13.11-4.49-2.75-11.88-7.96-16.41-11.56-5.02-3.99-10.15-16.82-13.11-32.77-2.69-14.57-3.88-46.6-2.66-72.1 1.6-33.64 4.65-51.41 11.43-66.63 5.6-12.57 13.99-23.17 21.27-26.89 6.6-3.37 23.81-9.23 38.23-13.02 14.42-3.8 37.03-6.95 50.25-7 15.43-0.06 42.79 5.62 76.46 15.88 28.84 8.8 55.88 14.7 60.08 13.13 7.15-2.67 7.05-4.06-1.61-21.43-5.09-10.21-25.24-33.93-44.79-52.71-27.46-26.4-44.45-38.46-74.85-53.19-21.63-10.48-53.58-22.15-71-25.94-17.43-3.79-50.85-6.78-74.28-6.64-26.28 0.14-54.33 3.28-73.19 8.17-16.82 4.37-43.37 14.26-58.99 21.98zm-180.74 277.02c0.34 19.98 4.65 51.39 9.83 71.63 5.09 19.83 14.77 48.34 21.52 63.36 6.75 15.02 20.23 39.1 29.95 53.52 9.72 14.42 28.32 36.05 41.34 48.07 13.01 12.01 35.42 29.12 49.79 38.01 14.37 8.89 39.89 21.04 56.71 26.99 16.82 5.96 46.32 12.54 65.54 14.63 19.23 2.08 53.64 2.15 76.47 0.16 24.45-2.14 54.08-8.09 72.09-14.48 16.83-5.96 44.35-19.42 61.18-29.91 16.82-10.5 44.07-33.57 60.56-51.27 22.52-24.19 35.19-43.06 50.94-75.89 11.53-24.03 23.57-54.51 26.75-67.73 3.18-13.21 5.81-46.97 5.86-75 0.04-28.03-0.91-52.22-2.11-53.75-1.2-1.53-21.84 3.36-45.88 10.86-24.03 7.51-56.96 16.46-73.18 19.89-18.22 3.86-36.6 5.05-48.07 3.12-10.21-1.73-26.92-8.61-37.14-15.3-10.21-6.69-20.38-12.16-22.6-12.16-2.22 0-10.08 5.9-17.48 13.11-8.48 8.27-13.48 17.54-13.54 25.12-0.06 7.69 4.7 16.74 13.2 25.13 11.32 11.16 13.29 16.35 13.24 34.95-0.03 12.12-2.99 26.23-6.65 31.68-4.11 6.14-15.62 12.29-30.62 16.39-13.21 3.6-24.06 8.02-24.1 9.83-0.04 1.8 2.41 6.63 5.46 10.72 3.04 4.1 14.87 11.47 26.29 16.39 13.53 5.82 20.73 11.6 20.69 16.58-0.04 4.21-1.94 10.6-4.22 14.2-3.35 5.3-15.46 6.56-63.14 6.56-49.84 0-60.2-1.17-66.78-7.52-7.48-7.2-7.44-7.89 0.94-16.85 4.8-5.13 15.62-12.77 24.03-16.98 8.41-4.2 16.77-10.88 18.57-14.83 2.53-5.56-0.92-9.1-15.29-15.66-10.22-4.67-21.69-11.06-25.51-14.21-3.81-3.14-9.22-10.14-12.01-15.54-2.8-5.41-5.13-16.23-5.18-24.04-0.06-9.07 4.63-20.51 12.99-31.67 7.19-9.62 13.13-22.89 13.2-29.5 0.08-7.63-4.66-16.79-12.99-25.12-7.21-7.21-15.07-13.11-17.48-13.11-2.4 0-9.77 4.74-16.38 10.53-6.61 5.79-17.42 12.67-24.03 15.29-6.61 2.62-24.31 4.75-39.33 4.72-20.27-0.03-38.56-4.1-71-15.78-24.03-8.65-48.63-16.66-54.67-17.78-7.55-1.41-13.69 0.93-19.66 7.5-7.31 8.03-8.6 15.21-8.1 45.14z"/>
</svg>